<mxfile host="app.diagrams.net" modified="2022-11-04T02:01:08.823Z" agent="5.0 (Macintosh; Intel Mac OS X 10_15_7) AppleWebKit/605.1.15 (KHTML, like Gecko) Version/16.1 Safari/605.1.15" etag="3p9RD4I3-aQ_ztZzP1HS" version="20.4.1" type="github">
  <diagram id="Zizr9kG71ItXu3PUZdYu" name="第 1 页">
    <mxGraphModel dx="983" dy="553" grid="1" gridSize="10" guides="1" tooltips="1" connect="1" arrows="1" fold="1" page="1" pageScale="1" pageWidth="827" pageHeight="1169" math="1" shadow="0">
      <root>
        <mxCell id="0" />
        <mxCell id="1" parent="0" />
        <mxCell id="7wE68VjL94obTEk8A7nX-3" value="&lt;font style=&quot;font-size: 10px;&quot;&gt;`V_1`&lt;/font&gt;" style="ellipse;whiteSpace=wrap;html=1;aspect=fixed;" vertex="1" parent="1">
          <mxGeometry x="300" y="120" width="20" height="20" as="geometry" />
        </mxCell>
        <mxCell id="7wE68VjL94obTEk8A7nX-4" value="&lt;font style=&quot;font-size: 10px;&quot;&gt;`V_2`&lt;/font&gt;" style="ellipse;whiteSpace=wrap;html=1;aspect=fixed;" vertex="1" parent="1">
          <mxGeometry x="340" y="120" width="20" height="20" as="geometry" />
        </mxCell>
        <mxCell id="7wE68VjL94obTEk8A7nX-5" value="&lt;font style=&quot;font-size: 10px;&quot;&gt;`V_3`&lt;/font&gt;" style="ellipse;whiteSpace=wrap;html=1;aspect=fixed;" vertex="1" parent="1">
          <mxGeometry x="320" y="150" width="20" height="20" as="geometry" />
        </mxCell>
        <mxCell id="7wE68VjL94obTEk8A7nX-6" value="" style="endArrow=none;html=1;rounded=0;fontSize=10;entryX=0.231;entryY=0.932;entryDx=0;entryDy=0;exitX=0.798;exitY=0.113;exitDx=0;exitDy=0;entryPerimeter=0;exitPerimeter=0;" edge="1" parent="1" source="7wE68VjL94obTEk8A7nX-5" target="7wE68VjL94obTEk8A7nX-4">
          <mxGeometry width="50" height="50" relative="1" as="geometry">
            <mxPoint x="340" y="290" as="sourcePoint" />
            <mxPoint x="390" y="240" as="targetPoint" />
          </mxGeometry>
        </mxCell>
        <mxCell id="7wE68VjL94obTEk8A7nX-8" value="&lt;font style=&quot;font-size: 10px;&quot;&gt;`V_2`&lt;/font&gt;" style="ellipse;whiteSpace=wrap;html=1;aspect=fixed;" vertex="1" parent="1">
          <mxGeometry x="330" y="190" width="20" height="20" as="geometry" />
        </mxCell>
        <mxCell id="7wE68VjL94obTEk8A7nX-9" value="&lt;font style=&quot;font-size: 10px;&quot;&gt;`V_3`&lt;/font&gt;" style="ellipse;whiteSpace=wrap;html=1;aspect=fixed;" vertex="1" parent="1">
          <mxGeometry x="310" y="220" width="20" height="20" as="geometry" />
        </mxCell>
        <mxCell id="7wE68VjL94obTEk8A7nX-10" value="" style="endArrow=none;html=1;rounded=0;fontSize=10;entryX=0.231;entryY=0.932;entryDx=0;entryDy=0;exitX=0.798;exitY=0.113;exitDx=0;exitDy=0;entryPerimeter=0;exitPerimeter=0;" edge="1" parent="1" source="7wE68VjL94obTEk8A7nX-9" target="7wE68VjL94obTEk8A7nX-8">
          <mxGeometry width="50" height="50" relative="1" as="geometry">
            <mxPoint x="330" y="360" as="sourcePoint" />
            <mxPoint x="380" y="310" as="targetPoint" />
          </mxGeometry>
        </mxCell>
        <mxCell id="7wE68VjL94obTEk8A7nX-11" value="&lt;font style=&quot;font-size: 10px;&quot;&gt;`V_3`&lt;/font&gt;" style="ellipse;whiteSpace=wrap;html=1;aspect=fixed;" vertex="1" parent="1">
          <mxGeometry x="300" y="260" width="20" height="20" as="geometry" />
        </mxCell>
        <mxCell id="7wE68VjL94obTEk8A7nX-12" value="&lt;font style=&quot;font-size: 10px;&quot;&gt;`V_5`&lt;/font&gt;" style="ellipse;whiteSpace=wrap;html=1;aspect=fixed;" vertex="1" parent="1">
          <mxGeometry x="340" y="260" width="20" height="20" as="geometry" />
        </mxCell>
        <mxCell id="7wE68VjL94obTEk8A7nX-13" value="&lt;font style=&quot;font-size: 10px;&quot;&gt;`V_6`&lt;/font&gt;" style="ellipse;whiteSpace=wrap;html=1;aspect=fixed;" vertex="1" parent="1">
          <mxGeometry x="320" y="290" width="20" height="20" as="geometry" />
        </mxCell>
        <mxCell id="7wE68VjL94obTEk8A7nX-15" value="&lt;font style=&quot;font-size: 10px;&quot;&gt;`V_4`&lt;/font&gt;" style="ellipse;whiteSpace=wrap;html=1;aspect=fixed;" vertex="1" parent="1">
          <mxGeometry x="320" y="328.65" width="20" height="20" as="geometry" />
        </mxCell>
        <mxCell id="7wE68VjL94obTEk8A7nX-16" value="" style="endArrow=none;dashed=1;html=1;rounded=0;fontSize=10;" edge="1" parent="1">
          <mxGeometry width="50" height="50" relative="1" as="geometry">
            <mxPoint x="290" y="360" as="sourcePoint" />
            <mxPoint x="290" y="110" as="targetPoint" />
          </mxGeometry>
        </mxCell>
        <mxCell id="7wE68VjL94obTEk8A7nX-17" value="" style="endArrow=none;dashed=1;html=1;rounded=0;fontSize=10;" edge="1" parent="1">
          <mxGeometry width="50" height="50" relative="1" as="geometry">
            <mxPoint x="370" y="360" as="sourcePoint" />
            <mxPoint x="370" y="110" as="targetPoint" />
          </mxGeometry>
        </mxCell>
        <mxCell id="7wE68VjL94obTEk8A7nX-18" value="" style="endArrow=none;dashed=1;html=1;rounded=0;fontSize=10;" edge="1" parent="1">
          <mxGeometry width="50" height="50" relative="1" as="geometry">
            <mxPoint x="290" y="360" as="sourcePoint" />
            <mxPoint x="370" y="360" as="targetPoint" />
          </mxGeometry>
        </mxCell>
        <mxCell id="7wE68VjL94obTEk8A7nX-19" value="" style="endArrow=none;dashed=1;html=1;rounded=0;fontSize=10;" edge="1" parent="1">
          <mxGeometry width="50" height="50" relative="1" as="geometry">
            <mxPoint x="290" y="110" as="sourcePoint" />
            <mxPoint x="370" y="110" as="targetPoint" />
          </mxGeometry>
        </mxCell>
        <mxCell id="7wE68VjL94obTEk8A7nX-20" value="" style="endArrow=none;dashed=1;html=1;rounded=0;fontSize=10;" edge="1" parent="1">
          <mxGeometry width="50" height="50" relative="1" as="geometry">
            <mxPoint x="290" y="180" as="sourcePoint" />
            <mxPoint x="370" y="180" as="targetPoint" />
          </mxGeometry>
        </mxCell>
        <mxCell id="7wE68VjL94obTEk8A7nX-21" value="" style="endArrow=none;dashed=1;html=1;rounded=0;fontSize=10;" edge="1" parent="1">
          <mxGeometry width="50" height="50" relative="1" as="geometry">
            <mxPoint x="290" y="249.12" as="sourcePoint" />
            <mxPoint x="370" y="249.12" as="targetPoint" />
          </mxGeometry>
        </mxCell>
        <mxCell id="7wE68VjL94obTEk8A7nX-22" value="" style="endArrow=none;dashed=1;html=1;rounded=0;fontSize=10;" edge="1" parent="1">
          <mxGeometry width="50" height="50" relative="1" as="geometry">
            <mxPoint x="290" y="320" as="sourcePoint" />
            <mxPoint x="370" y="320" as="targetPoint" />
          </mxGeometry>
        </mxCell>
        <mxCell id="7wE68VjL94obTEk8A7nX-23" value="`e_1`" style="text;html=1;strokeColor=none;fillColor=none;align=center;verticalAlign=middle;whiteSpace=wrap;rounded=0;fontSize=10;" vertex="1" parent="1">
          <mxGeometry x="330" y="150" width="60" height="30" as="geometry" />
        </mxCell>
        <mxCell id="7wE68VjL94obTEk8A7nX-24" value="`e_2`" style="text;html=1;strokeColor=none;fillColor=none;align=center;verticalAlign=middle;whiteSpace=wrap;rounded=0;fontSize=10;" vertex="1" parent="1">
          <mxGeometry x="330" y="215" width="60" height="30" as="geometry" />
        </mxCell>
        <mxCell id="7wE68VjL94obTEk8A7nX-25" value="`e_3`" style="text;html=1;strokeColor=none;fillColor=none;align=center;verticalAlign=middle;whiteSpace=wrap;rounded=0;fontSize=10;" vertex="1" parent="1">
          <mxGeometry x="330" y="290" width="60" height="30" as="geometry" />
        </mxCell>
        <mxCell id="7wE68VjL94obTEk8A7nX-26" value="`e_4`" style="text;html=1;strokeColor=none;fillColor=none;align=center;verticalAlign=middle;whiteSpace=wrap;rounded=0;fontSize=10;" vertex="1" parent="1">
          <mxGeometry x="330" y="323.65" width="60" height="30" as="geometry" />
        </mxCell>
        <mxCell id="7wE68VjL94obTEk8A7nX-66" value="Graph &lt;br&gt;Representations&lt;br&gt;GNN+Pooling&lt;br&gt;" style="rounded=1;whiteSpace=wrap;html=1;sketch=0;strokeColor=default;fontSize=10;textDirection=rtl;horizontal=1;verticalAlign=middle;" vertex="1" parent="1">
          <mxGeometry x="400" y="110" width="50" height="250" as="geometry" />
        </mxCell>
        <mxCell id="7wE68VjL94obTEk8A7nX-67" value="" style="endArrow=classic;html=1;rounded=0;fontSize=10;entryX=-0.027;entryY=0.14;entryDx=0;entryDy=0;entryPerimeter=0;" edge="1" parent="1">
          <mxGeometry width="50" height="50" relative="1" as="geometry">
            <mxPoint x="370" y="146" as="sourcePoint" />
            <mxPoint x="398.6500000000001" y="146" as="targetPoint" />
          </mxGeometry>
        </mxCell>
        <mxCell id="7wE68VjL94obTEk8A7nX-68" value="" style="endArrow=classic;html=1;rounded=0;fontSize=10;entryX=-0.027;entryY=0.14;entryDx=0;entryDy=0;entryPerimeter=0;" edge="1" parent="1">
          <mxGeometry width="50" height="50" relative="1" as="geometry">
            <mxPoint x="371.35000000000014" y="210" as="sourcePoint" />
            <mxPoint x="400.0000000000001" y="210" as="targetPoint" />
          </mxGeometry>
        </mxCell>
        <mxCell id="7wE68VjL94obTEk8A7nX-69" value="" style="endArrow=classic;html=1;rounded=0;fontSize=10;entryX=-0.027;entryY=0.14;entryDx=0;entryDy=0;entryPerimeter=0;" edge="1" parent="1">
          <mxGeometry width="50" height="50" relative="1" as="geometry">
            <mxPoint x="371.35000000000014" y="280" as="sourcePoint" />
            <mxPoint x="400.0000000000001" y="280" as="targetPoint" />
          </mxGeometry>
        </mxCell>
        <mxCell id="7wE68VjL94obTEk8A7nX-70" value="" style="endArrow=classic;html=1;rounded=0;fontSize=10;entryX=-0.027;entryY=0.14;entryDx=0;entryDy=0;entryPerimeter=0;" edge="1" parent="1">
          <mxGeometry width="50" height="50" relative="1" as="geometry">
            <mxPoint x="371.35000000000014" y="338.48" as="sourcePoint" />
            <mxPoint x="400.0000000000001" y="338.48" as="targetPoint" />
          </mxGeometry>
        </mxCell>
        <mxCell id="7wE68VjL94obTEk8A7nX-80" value="" style="group" vertex="1" connectable="0" parent="1">
          <mxGeometry x="490" y="200" width="60" height="70" as="geometry" />
        </mxCell>
        <mxCell id="7wE68VjL94obTEk8A7nX-75" value="" style="shape=cube;whiteSpace=wrap;html=1;boundedLbl=1;backgroundOutline=1;darkOpacity=0.05;darkOpacity2=0.1;sketch=0;strokeColor=default;fontSize=10;" vertex="1" parent="7wE68VjL94obTEk8A7nX-80">
          <mxGeometry x="30" width="30" height="70" as="geometry" />
        </mxCell>
        <mxCell id="7wE68VjL94obTEk8A7nX-76" value="" style="shape=cube;whiteSpace=wrap;html=1;boundedLbl=1;backgroundOutline=1;darkOpacity=0.05;darkOpacity2=0.1;sketch=0;strokeColor=default;fontSize=10;" vertex="1" parent="7wE68VjL94obTEk8A7nX-80">
          <mxGeometry x="20" width="30" height="70" as="geometry" />
        </mxCell>
        <mxCell id="7wE68VjL94obTEk8A7nX-77" value="" style="shape=cube;whiteSpace=wrap;html=1;boundedLbl=1;backgroundOutline=1;darkOpacity=0.05;darkOpacity2=0.1;sketch=0;strokeColor=default;fontSize=10;" vertex="1" parent="7wE68VjL94obTEk8A7nX-80">
          <mxGeometry x="10" width="30" height="70" as="geometry" />
        </mxCell>
        <mxCell id="7wE68VjL94obTEk8A7nX-79" value="" style="shape=cube;whiteSpace=wrap;html=1;boundedLbl=1;backgroundOutline=1;darkOpacity=0.05;darkOpacity2=0.1;sketch=0;strokeColor=default;fontSize=10;" vertex="1" parent="7wE68VjL94obTEk8A7nX-80">
          <mxGeometry width="30" height="70" as="geometry" />
        </mxCell>
        <mxCell id="7wE68VjL94obTEk8A7nX-81" value="hyperedge&lt;br&gt;embeddings" style="text;html=1;strokeColor=none;fillColor=none;align=center;verticalAlign=middle;whiteSpace=wrap;rounded=0;sketch=0;fontSize=10;" vertex="1" parent="1">
          <mxGeometry x="490" y="270" width="60" height="30" as="geometry" />
        </mxCell>
        <mxCell id="7wE68VjL94obTEk8A7nX-84" value="&lt;font style=&quot;font-size: 10px;&quot;&gt;`e_1`&lt;/font&gt;" style="ellipse;whiteSpace=wrap;html=1;aspect=fixed;" vertex="1" parent="1">
          <mxGeometry x="600" y="130" width="20" height="20" as="geometry" />
        </mxCell>
        <mxCell id="7wE68VjL94obTEk8A7nX-86" value="&lt;font style=&quot;font-size: 10px;&quot;&gt;`e_2`&lt;/font&gt;" style="ellipse;whiteSpace=wrap;html=1;aspect=fixed;" vertex="1" parent="1">
          <mxGeometry x="610" y="183.12" width="20" height="20" as="geometry" />
        </mxCell>
        <mxCell id="7wE68VjL94obTEk8A7nX-87" value="&lt;font style=&quot;font-size: 10px;&quot;&gt;`e_1`&lt;/font&gt;" style="ellipse;whiteSpace=wrap;html=1;aspect=fixed;" vertex="1" parent="1">
          <mxGeometry x="590" y="213.12" width="20" height="20" as="geometry" />
        </mxCell>
        <mxCell id="7wE68VjL94obTEk8A7nX-88" value="" style="endArrow=none;html=1;rounded=0;fontSize=10;entryX=0.231;entryY=0.932;entryDx=0;entryDy=0;exitX=0.798;exitY=0.113;exitDx=0;exitDy=0;entryPerimeter=0;exitPerimeter=0;" edge="1" parent="1" source="7wE68VjL94obTEk8A7nX-87" target="7wE68VjL94obTEk8A7nX-86">
          <mxGeometry width="50" height="50" relative="1" as="geometry">
            <mxPoint x="610" y="353.12" as="sourcePoint" />
            <mxPoint x="660" y="303.12" as="targetPoint" />
          </mxGeometry>
        </mxCell>
        <mxCell id="7wE68VjL94obTEk8A7nX-89" value="&lt;font style=&quot;font-size: 10px;&quot;&gt;`e_1`&lt;/font&gt;" style="ellipse;whiteSpace=wrap;html=1;aspect=fixed;" vertex="1" parent="1">
          <mxGeometry x="580" y="253.12" width="20" height="20" as="geometry" />
        </mxCell>
        <mxCell id="7wE68VjL94obTEk8A7nX-90" value="&lt;font style=&quot;font-size: 10px;&quot;&gt;`e_2`&lt;/font&gt;" style="ellipse;whiteSpace=wrap;html=1;aspect=fixed;" vertex="1" parent="1">
          <mxGeometry x="620" y="253.12" width="20" height="20" as="geometry" />
        </mxCell>
        <mxCell id="7wE68VjL94obTEk8A7nX-91" value="&lt;font style=&quot;font-size: 10px;&quot;&gt;`e_3`&lt;/font&gt;" style="ellipse;whiteSpace=wrap;html=1;aspect=fixed;" vertex="1" parent="1">
          <mxGeometry x="600" y="283.12" width="20" height="20" as="geometry" />
        </mxCell>
        <mxCell id="7wE68VjL94obTEk8A7nX-92" value="&lt;font style=&quot;font-size: 10px;&quot;&gt;`e_4`&lt;/font&gt;" style="ellipse;whiteSpace=wrap;html=1;aspect=fixed;" vertex="1" parent="1">
          <mxGeometry x="600" y="321.77" width="20" height="20" as="geometry" />
        </mxCell>
        <mxCell id="7wE68VjL94obTEk8A7nX-93" value="" style="endArrow=none;dashed=1;html=1;rounded=0;fontSize=10;" edge="1" parent="1">
          <mxGeometry width="50" height="50" relative="1" as="geometry">
            <mxPoint x="570" y="353.12" as="sourcePoint" />
            <mxPoint x="570" y="103.12" as="targetPoint" />
          </mxGeometry>
        </mxCell>
        <mxCell id="7wE68VjL94obTEk8A7nX-94" value="" style="endArrow=none;dashed=1;html=1;rounded=0;fontSize=10;" edge="1" parent="1">
          <mxGeometry width="50" height="50" relative="1" as="geometry">
            <mxPoint x="650" y="353.12" as="sourcePoint" />
            <mxPoint x="650" y="103.12" as="targetPoint" />
          </mxGeometry>
        </mxCell>
        <mxCell id="7wE68VjL94obTEk8A7nX-95" value="" style="endArrow=none;dashed=1;html=1;rounded=0;fontSize=10;" edge="1" parent="1">
          <mxGeometry width="50" height="50" relative="1" as="geometry">
            <mxPoint x="570" y="353.12" as="sourcePoint" />
            <mxPoint x="650" y="353.12" as="targetPoint" />
          </mxGeometry>
        </mxCell>
        <mxCell id="7wE68VjL94obTEk8A7nX-96" value="" style="endArrow=none;dashed=1;html=1;rounded=0;fontSize=10;" edge="1" parent="1">
          <mxGeometry width="50" height="50" relative="1" as="geometry">
            <mxPoint x="570" y="103.12" as="sourcePoint" />
            <mxPoint x="650" y="103.12" as="targetPoint" />
          </mxGeometry>
        </mxCell>
        <mxCell id="7wE68VjL94obTEk8A7nX-97" value="" style="endArrow=none;dashed=1;html=1;rounded=0;fontSize=10;" edge="1" parent="1">
          <mxGeometry width="50" height="50" relative="1" as="geometry">
            <mxPoint x="570" y="173.12" as="sourcePoint" />
            <mxPoint x="650" y="173.12" as="targetPoint" />
          </mxGeometry>
        </mxCell>
        <mxCell id="7wE68VjL94obTEk8A7nX-98" value="" style="endArrow=none;dashed=1;html=1;rounded=0;fontSize=10;" edge="1" parent="1">
          <mxGeometry width="50" height="50" relative="1" as="geometry">
            <mxPoint x="570" y="242.24" as="sourcePoint" />
            <mxPoint x="650" y="242.24" as="targetPoint" />
          </mxGeometry>
        </mxCell>
        <mxCell id="7wE68VjL94obTEk8A7nX-99" value="" style="endArrow=none;dashed=1;html=1;rounded=0;fontSize=10;" edge="1" parent="1">
          <mxGeometry width="50" height="50" relative="1" as="geometry">
            <mxPoint x="570" y="313.12" as="sourcePoint" />
            <mxPoint x="650" y="313.12" as="targetPoint" />
          </mxGeometry>
        </mxCell>
        <mxCell id="7wE68VjL94obTEk8A7nX-100" value="`V_1`" style="text;html=1;strokeColor=none;fillColor=none;align=center;verticalAlign=middle;whiteSpace=wrap;rounded=0;fontSize=10;" vertex="1" parent="1">
          <mxGeometry x="610" y="143.12" width="60" height="30" as="geometry" />
        </mxCell>
        <mxCell id="7wE68VjL94obTEk8A7nX-101" value="`V_2`" style="text;html=1;strokeColor=none;fillColor=none;align=center;verticalAlign=middle;whiteSpace=wrap;rounded=0;fontSize=10;" vertex="1" parent="1">
          <mxGeometry x="610" y="208.12" width="60" height="30" as="geometry" />
        </mxCell>
        <mxCell id="7wE68VjL94obTEk8A7nX-102" value="`V_3`" style="text;html=1;strokeColor=none;fillColor=none;align=center;verticalAlign=middle;whiteSpace=wrap;rounded=0;fontSize=10;" vertex="1" parent="1">
          <mxGeometry x="610" y="282.98" width="60" height="30" as="geometry" />
        </mxCell>
        <mxCell id="7wE68VjL94obTEk8A7nX-104" value="`V_4`" style="text;html=1;strokeColor=none;fillColor=none;align=center;verticalAlign=middle;whiteSpace=wrap;rounded=0;fontSize=10;" vertex="1" parent="1">
          <mxGeometry x="610" y="321.77000000000004" width="60" height="30" as="geometry" />
        </mxCell>
        <mxCell id="7wE68VjL94obTEk8A7nX-105" value="" style="shape=image;verticalLabelPosition=bottom;labelBackgroundColor=default;verticalAlign=top;aspect=fixed;imageAspect=0;image=https://upload.wikimedia.org/wikipedia/commons/thumb/5/57/Hypergraph-wikipedia.svg/2560px-Hypergraph-wikipedia.svg.png;imageBorder=default;sketch=1;" vertex="1" parent="1">
          <mxGeometry x="420" y="390" width="138.67" height="100" as="geometry" />
        </mxCell>
        <mxCell id="7wE68VjL94obTEk8A7nX-106" value="" style="curved=1;endArrow=classic;html=1;rounded=0;fontSize=10;exitX=0;exitY=0.5;exitDx=0;exitDy=0;" edge="1" parent="1" source="7wE68VjL94obTEk8A7nX-105">
          <mxGeometry width="50" height="50" relative="1" as="geometry">
            <mxPoint x="360" y="380" as="sourcePoint" />
            <mxPoint x="330" y="360" as="targetPoint" />
            <Array as="points">
              <mxPoint x="350" y="450" />
            </Array>
          </mxGeometry>
        </mxCell>
        <mxCell id="7wE68VjL94obTEk8A7nX-107" value="" style="curved=1;endArrow=classic;html=1;rounded=0;fontSize=10;exitX=1;exitY=0.5;exitDx=0;exitDy=0;entryX=0;entryY=1;entryDx=0;entryDy=0;" edge="1" parent="1" source="7wE68VjL94obTEk8A7nX-105" target="7wE68VjL94obTEk8A7nX-104">
          <mxGeometry width="50" height="50" relative="1" as="geometry">
            <mxPoint x="430" y="450" as="sourcePoint" />
            <mxPoint x="340" y="370" as="targetPoint" />
            <Array as="points">
              <mxPoint x="620" y="420" />
            </Array>
          </mxGeometry>
        </mxCell>
        <mxCell id="7wE68VjL94obTEk8A7nX-109" value="" style="shape=singleArrow;whiteSpace=wrap;html=1;sketch=0;strokeColor=default;fontSize=10;" vertex="1" parent="1">
          <mxGeometry x="550" y="225" width="20" height="20" as="geometry" />
        </mxCell>
        <mxCell id="7wE68VjL94obTEk8A7nX-110" value="" style="group" vertex="1" connectable="0" parent="1">
          <mxGeometry x="210" y="200" width="60" height="70" as="geometry" />
        </mxCell>
        <mxCell id="7wE68VjL94obTEk8A7nX-111" value="" style="shape=cube;whiteSpace=wrap;html=1;boundedLbl=1;backgroundOutline=1;darkOpacity=0.05;darkOpacity2=0.1;sketch=0;strokeColor=default;fontSize=10;" vertex="1" parent="7wE68VjL94obTEk8A7nX-110">
          <mxGeometry x="30" width="30" height="70" as="geometry" />
        </mxCell>
        <mxCell id="7wE68VjL94obTEk8A7nX-112" value="" style="shape=cube;whiteSpace=wrap;html=1;boundedLbl=1;backgroundOutline=1;darkOpacity=0.05;darkOpacity2=0.1;sketch=0;strokeColor=default;fontSize=10;" vertex="1" parent="7wE68VjL94obTEk8A7nX-110">
          <mxGeometry x="20" width="30" height="70" as="geometry" />
        </mxCell>
        <mxCell id="7wE68VjL94obTEk8A7nX-113" value="" style="shape=cube;whiteSpace=wrap;html=1;boundedLbl=1;backgroundOutline=1;darkOpacity=0.05;darkOpacity2=0.1;sketch=0;strokeColor=default;fontSize=10;" vertex="1" parent="7wE68VjL94obTEk8A7nX-110">
          <mxGeometry x="10" width="30" height="70" as="geometry" />
        </mxCell>
        <mxCell id="7wE68VjL94obTEk8A7nX-114" value="" style="shape=cube;whiteSpace=wrap;html=1;boundedLbl=1;backgroundOutline=1;darkOpacity=0.05;darkOpacity2=0.1;sketch=0;strokeColor=default;fontSize=10;" vertex="1" parent="7wE68VjL94obTEk8A7nX-110">
          <mxGeometry width="30" height="70" as="geometry" />
        </mxCell>
        <mxCell id="7wE68VjL94obTEk8A7nX-115" value="node&lt;br&gt;features" style="text;html=1;strokeColor=none;fillColor=none;align=center;verticalAlign=middle;whiteSpace=wrap;rounded=0;sketch=0;fontSize=10;" vertex="1" parent="1">
          <mxGeometry x="210" y="270" width="60" height="30" as="geometry" />
        </mxCell>
        <mxCell id="7wE68VjL94obTEk8A7nX-116" value="" style="shape=singleArrow;whiteSpace=wrap;html=1;sketch=0;strokeColor=default;fontSize=10;" vertex="1" parent="1">
          <mxGeometry x="270" y="225" width="20" height="20" as="geometry" />
        </mxCell>
        <mxCell id="7wE68VjL94obTEk8A7nX-118" value="" style="group" vertex="1" connectable="0" parent="1">
          <mxGeometry x="773" y="200" width="60" height="70" as="geometry" />
        </mxCell>
        <mxCell id="7wE68VjL94obTEk8A7nX-119" value="" style="shape=cube;whiteSpace=wrap;html=1;boundedLbl=1;backgroundOutline=1;darkOpacity=0.05;darkOpacity2=0.1;sketch=0;strokeColor=default;fontSize=10;" vertex="1" parent="7wE68VjL94obTEk8A7nX-118">
          <mxGeometry x="30" width="30" height="70" as="geometry" />
        </mxCell>
        <mxCell id="7wE68VjL94obTEk8A7nX-120" value="" style="shape=cube;whiteSpace=wrap;html=1;boundedLbl=1;backgroundOutline=1;darkOpacity=0.05;darkOpacity2=0.1;sketch=0;strokeColor=default;fontSize=10;" vertex="1" parent="7wE68VjL94obTEk8A7nX-118">
          <mxGeometry x="20" width="30" height="70" as="geometry" />
        </mxCell>
        <mxCell id="7wE68VjL94obTEk8A7nX-136" style="edgeStyle=orthogonalEdgeStyle;rounded=0;orthogonalLoop=1;jettySize=auto;html=1;exitX=0;exitY=0;exitDx=30;exitDy=45;exitPerimeter=0;entryX=0;entryY=0;entryDx=30;entryDy=45;entryPerimeter=0;fontSize=10;" edge="1" parent="7wE68VjL94obTEk8A7nX-118" source="7wE68VjL94obTEk8A7nX-121" target="7wE68VjL94obTEk8A7nX-120">
          <mxGeometry relative="1" as="geometry" />
        </mxCell>
        <mxCell id="7wE68VjL94obTEk8A7nX-121" value="" style="shape=cube;whiteSpace=wrap;html=1;boundedLbl=1;backgroundOutline=1;darkOpacity=0.05;darkOpacity2=0.1;sketch=0;strokeColor=default;fontSize=10;" vertex="1" parent="7wE68VjL94obTEk8A7nX-118">
          <mxGeometry x="10" width="30" height="70" as="geometry" />
        </mxCell>
        <mxCell id="7wE68VjL94obTEk8A7nX-122" value="" style="shape=cube;whiteSpace=wrap;html=1;boundedLbl=1;backgroundOutline=1;darkOpacity=0.05;darkOpacity2=0.1;sketch=0;strokeColor=default;fontSize=10;" vertex="1" parent="7wE68VjL94obTEk8A7nX-118">
          <mxGeometry width="30" height="70" as="geometry" />
        </mxCell>
        <mxCell id="7wE68VjL94obTEk8A7nX-123" value="node&lt;br&gt;embeddings" style="text;html=1;strokeColor=none;fillColor=none;align=center;verticalAlign=middle;whiteSpace=wrap;rounded=0;sketch=0;fontSize=10;" vertex="1" parent="1">
          <mxGeometry x="773" y="270" width="60" height="30" as="geometry" />
        </mxCell>
        <mxCell id="7wE68VjL94obTEk8A7nX-124" value="" style="shape=singleArrow;whiteSpace=wrap;html=1;sketch=0;strokeColor=default;fontSize=10;" vertex="1" parent="1">
          <mxGeometry x="750" y="225" width="20" height="20" as="geometry" />
        </mxCell>
        <mxCell id="7wE68VjL94obTEk8A7nX-125" value="" style="endArrow=none;dashed=1;html=1;rounded=0;fontSize=10;" edge="1" parent="1">
          <mxGeometry width="50" height="50" relative="1" as="geometry">
            <mxPoint x="650" y="355" as="sourcePoint" />
            <mxPoint x="650" y="105" as="targetPoint" />
          </mxGeometry>
        </mxCell>
        <mxCell id="7wE68VjL94obTEk8A7nX-126" value="Graph &lt;br&gt;Representations&lt;br&gt;GNN+Pooling&lt;br&gt;" style="rounded=1;whiteSpace=wrap;html=1;sketch=0;strokeColor=default;fontSize=10;textDirection=rtl;horizontal=1;verticalAlign=middle;" vertex="1" parent="1">
          <mxGeometry x="680" y="105" width="50" height="250" as="geometry" />
        </mxCell>
        <mxCell id="7wE68VjL94obTEk8A7nX-127" value="" style="endArrow=classic;html=1;rounded=0;fontSize=10;entryX=-0.027;entryY=0.14;entryDx=0;entryDy=0;entryPerimeter=0;" edge="1" parent="1">
          <mxGeometry width="50" height="50" relative="1" as="geometry">
            <mxPoint x="650" y="141" as="sourcePoint" />
            <mxPoint x="678.6500000000001" y="141" as="targetPoint" />
          </mxGeometry>
        </mxCell>
        <mxCell id="7wE68VjL94obTEk8A7nX-128" value="" style="endArrow=classic;html=1;rounded=0;fontSize=10;entryX=-0.027;entryY=0.14;entryDx=0;entryDy=0;entryPerimeter=0;" edge="1" parent="1">
          <mxGeometry width="50" height="50" relative="1" as="geometry">
            <mxPoint x="651.3500000000001" y="205" as="sourcePoint" />
            <mxPoint x="680" y="205" as="targetPoint" />
          </mxGeometry>
        </mxCell>
        <mxCell id="7wE68VjL94obTEk8A7nX-129" value="" style="endArrow=classic;html=1;rounded=0;fontSize=10;entryX=-0.027;entryY=0.14;entryDx=0;entryDy=0;entryPerimeter=0;" edge="1" parent="1">
          <mxGeometry width="50" height="50" relative="1" as="geometry">
            <mxPoint x="651.3500000000001" y="275" as="sourcePoint" />
            <mxPoint x="680" y="275" as="targetPoint" />
          </mxGeometry>
        </mxCell>
        <mxCell id="7wE68VjL94obTEk8A7nX-130" value="" style="endArrow=classic;html=1;rounded=0;fontSize=10;entryX=-0.027;entryY=0.14;entryDx=0;entryDy=0;entryPerimeter=0;" edge="1" parent="1">
          <mxGeometry width="50" height="50" relative="1" as="geometry">
            <mxPoint x="651.3500000000001" y="333.48" as="sourcePoint" />
            <mxPoint x="680" y="333.48" as="targetPoint" />
          </mxGeometry>
        </mxCell>
        <mxCell id="7wE68VjL94obTEk8A7nX-135" value="" style="shape=singleArrow;whiteSpace=wrap;html=1;sketch=0;strokeColor=default;fontSize=10;" vertex="1" parent="1">
          <mxGeometry x="464" y="225" width="20" height="20" as="geometry" />
        </mxCell>
      </root>
    </mxGraphModel>
  </diagram>
</mxfile>
